<?xml version="1.0" standalone="no"?>
<!DOCTYPE svg PUBLIC "-//W3C//DTD SVG 20010904//EN"
 "http://www.w3.org/TR/2001/REC-SVG-20010904/DTD/svg10.dtd">
<svg version="1.0" xmlns="http://www.w3.org/2000/svg"
 width="629.000000pt" height="1050.000000pt" viewBox="0 0 629.000000 1050.000000"
 preserveAspectRatio="xMidYMid meet">

<g transform="translate(0.000000,1050.000000) scale(0.100000,-0.100000)"
fill="#000000" stroke="none">
<path d="M1150 10468 c-80 -55 -97 -112 -106 -361 -7 -185 5 -430 37 -776 10
-118 18 -215 17 -217 -2 -1 -44 -9 -94 -18 -354 -61 -649 -310 -827 -699 l-26
-57 30 15 30 16 -29 -58 c-132 -261 -195 -672 -172 -1107 27 -499 124 -968
320 -1556 135 -405 263 -716 470 -1135 713 -1446 1790 -2716 2995 -3531 496
-336 1109 -634 1650 -803 245 -76 649 -171 730 -171 79 0 124 84 104 194 -21
117 -53 178 -193 371 -852 1169 -1560 2585 -2115 4227 -195 578 -241 784 -456
2053 -129 757 -229 1182 -346 1478 -42 105 -106 237 -145 299 -26 41 -23 45
16 23 42 -24 43 -18 8 47 -69 131 -246 274 -429 347 -208 83 -372 113 -674
120 l-230 6 -32 90 c-179 494 -227 663 -262 932 -21 160 -43 218 -98 260 -50
38 -126 43 -173 11z"/>
</g>
</svg>
